<svg xmlns="http://www.w3.org/2000/svg"  viewBox="0 0 24 24" width="64px" height="64px"><path d="M 12.039062 2.5 A 1.250125 1.250125 0 0 0 11.367188 2.671875 L 2.3671875 7.9667969 A 1.250125 1.250125 0 0 0 3 10.316406 L 3 19.75 A 1.250125 1.250125 0 0 0 4.25 21 L 19.75 21 A 1.250125 1.250125 0 0 0 21 19.75 L 21 10.314453 A 1.250125 1.250125 0 0 0 21.632812 7.9667969 L 12.632812 2.671875 A 1.250125 1.250125 0 0 0 12.039062 2.5 z M 12 5.2011719 L 18.5 9.0234375 L 18.5 18.5 L 16 18.5 L 16 12.25 A 1.250125 1.250125 0 0 0 14.75 11 L 9.25 11 A 1.250125 1.250125 0 0 0 8 12.25 L 8 18.5 L 5.5 18.5 L 5.5 9.0234375 L 12 5.2011719 z M 10.5 13.5 L 13.5 13.5 L 13.5 18.5 L 10.5 18.5 L 10.5 13.5 z"/></svg>