<svg xmlns="http://www.w3.org/2000/svg"  viewBox="0 0 32 32" width="64px" height="64px"><path d="M29.673,13.221c-0.916-0.567-1.833-1.119-2.746-1.67c-1.911-1.153-3.717-2.241-5.47-3.422 l-0.279-0.196C18.94,6.368,15.328,5.02,14,3c-0.462-0.792,0.06-1.648-0.843-1.883C12.863,1.04,12.556,1,12.249,1 c-1.635,0-3.038,1.081-3.41,2.63C8.834,3.649,8.83,3.669,8.825,3.688C8.172,2.853,7.177,2.352,6.074,2.352 c-1.298,0-2.544,0.705-3.173,1.797C2.282,5.222,2.332,6.529,3.035,7.644l0.025,0.04l0.027,0.038l0.95,1.365 c0.305,0.439,0.627,0.903,0.909,1.307c-1.034,1.201-2.142,2.331-3.135,3.331c-1.043,1.063,0.76,4.492,1.296,4.638 c0.072,0.553,0.144,1.1,0.195,1.635c0.03,0.283,0.053,0.553,0.077,0.831c0.116,1.366,0.261,3.066,1.017,4.864 C5.795,29.204,8.782,31,13.26,31c2.409,0,4.898-0.503,7.093-0.947c0.643-0.13,1.26-0.255,1.84-0.359l0.038-0.007l0.038-0.009 c4.011-0.877,6.421-2.84,6.787-5.527c0.328-2.175,0.223-4.139-0.068-5.9c0.89-0.283,1.617-0.993,1.895-1.916 C31.242,15.145,30.755,13.893,29.673,13.221z" opacity=".3"/><path fill="#fff" d="M28.673,12.221c-0.916-0.567-1.833-1.119-2.746-1.67c-1.911-1.153-3.717-2.241-5.47-3.422 l-0.279-0.196c-2.238-1.566-4.552-3.184-5.88-5.204c-0.462-0.792-1.238-1.378-2.141-1.613C11.863,0.04,11.556,0,11.249,0 c-1.635,0-3.038,1.081-3.41,2.63C7.834,2.649,7.83,2.669,7.825,2.688C7.172,1.853,6.177,1.352,5.074,1.352 c-1.298,0-2.544,0.705-3.173,1.797C1.282,4.222,1.332,5.529,2.035,6.644l0.025,0.04l0.027,0.038l0.95,1.365 C3.341,8.526,3.663,8.99,3.945,9.394c-1.034,1.201-2.142,2.331-3.135,3.331c-1.043,1.063-1.082,2.685-0.098,3.782 c0.372,0.416,0.858,0.711,1.395,0.857c0.072,0.553,0.144,1.1,0.195,1.635c0.03,0.283,0.053,0.553,0.077,0.831 c0.116,1.366,0.261,3.066,1.017,4.864C4.795,28.204,7.782,30,12.26,30c2.409,0,4.898-0.503,7.093-0.947 c0.643-0.13,1.26-0.255,1.84-0.359l0.038-0.007l0.038-0.009c4.011-0.877,6.421-2.84,6.787-5.527c0.328-2.175,0.223-4.139-0.068-5.9 c0.89-0.283,1.617-0.993,1.895-1.916C30.242,14.145,29.755,12.893,28.673,12.221z"/><path d="M27.474,13.539c-2.77-1.762-5.571-3.408-8.205-5.233c-2.424-1.748-5.099-3.613-6.685-6.128 c-0.185-0.347-0.509-0.624-0.919-0.734c-0.801-0.217-1.624,0.279-1.813,1.086C9.482,4.121,8.811,5.594,7.967,6.984 C7.471,5.87,6.934,4.666,6.535,3.765C5.668,1.692,2.69,3.213,3.859,5.123c0.534,0.787,1.911,2.833,2.431,3.593 c0.054,0.078,0.145,0.213,0.24,0.353c-1.266,1.657-2.719,3.204-4.152,4.688c-0.301,0.315-0.32,0.817-0.028,1.152 c0.31,0.356,0.849,0.393,1.205,0.083c0.226-0.197,0.453-0.397,0.68-0.596c0.13,1.423,0.423,2.818,0.547,4.12 c0.507,11.171,7.427,9.422,15.877,7.688c1.409-0.418,2.872-0.704,4.026-1.885c0.496-0.546,0.717-1.187,0.83-1.696 c0.482-3.084,0.013-5.829-0.695-8.609c0.601,0.325,1.197,0.653,1.781,0.99C27.556,15.526,28.381,14.118,27.474,13.539z M13.746,19.004l0.102-0.008c0.74,1.662,1.418,3.353,2.076,5.066c-0.948,0.122-1.888,0.236-2.8,0.374 c-0.219-1.748-0.636-3.811-0.945-5.299C12.622,19.071,13.457,19.039,13.746,19.004z M23.152,19.854 c-0.068,0.907-0.07,1.944-0.528,2.568c-1.446,0.704-3.07,1.09-4.733,1.361c-0.209-2.124-0.736-4.223-1.501-6.218 c-0.1-0.227-0.219-0.584-0.651-1.003c-0.873-0.862-2.268-0.465-3.336-0.461c-1.831-0.001-3.707,1.328-3.123,3.408 c0.48,1.724,1.046,3.38,1.684,5.037c-2.844-0.363-3.363-3.211-3.96-6.408c-0.4-1.682-0.901-3.173-1.256-4.725 c-0.022-0.096-0.063-0.184-0.115-0.263c1.105-1.004,2.193-2.052,3.202-3.214c1.109-1.278,2.107-2.706,2.908-4.271 c3.149,3.128,7.181,5.225,11.121,7.304C23.099,15.346,23.315,17.518,23.152,19.854z"/><path d="M20.138,13.726c-0.141-0.352-0.168-0.447-0.423-0.729c-0.087-0.096-0.326-0.258-0.33-0.26 c-0.009-0.006-0.018-0.01-0.027-0.015c-0.119-0.05-0.239-0.101-0.358-0.151c-0.007-0.003-0.014-0.005-0.021-0.007 c-0.162-0.043-0.333-0.061-0.501-0.064c-0.044-0.001-0.088,0.003-0.133,0.008c-0.12,0.015-0.311,0.033-0.458,0.064 c-0.02,0.004-0.04,0.009-0.06,0.015c-0.278,0.085-0.532,0.216-0.735,0.428c0,0,0,0,0,0c-0.012,0.011-0.027,0.018-0.038,0.03 c-0.078,0.101-0.156,0.202-0.235,0.304c-0.136,0.234-0.204,0.486-0.205,0.757c0.009,0.168,0.037,0.336,0.065,0.502 c0.007,0.042,0.017,0.083,0.03,0.123c0.051,0.156,0.12,0.306,0.189,0.455c0.007,0.016,0.015,0.032,0.025,0.047 c0.138,0.225,0.331,0.437,0.564,0.567c0.065,0.036,0.098,0.044,0.196,0.085c0.007,0.003,0.134,0.065,0.198,0.082 c0.065,0.017,0.215,0.03,0.219,0.03c0.062,0.008,0.148,0.023,0.221,0.029c0.02,0.002,0.039,0.002,0.059,0.001 c0.148-0.006,0.354-0.043,0.457-0.059c0.083-0.013,0.162-0.038,0.241-0.066c0.134-0.047,0.272-0.094,0.394-0.165 c0.208-0.121,0.445-0.338,0.559-0.555c0.066-0.125,0.132-0.255,0.164-0.393c0.009-0.066,0.018-0.133,0.027-0.199 c0.01-0.069,0.02-0.139,0.028-0.209c0.001-0.014,0.001-0.027,0.001-0.041C20.24,14.134,20.215,13.919,20.138,13.726z"/></svg>