<svg xmlns="http://www.w3.org/2000/svg"  viewBox="0 0 60 60" width="64px" height="64px"><path d="M 49.335938 3.9394531 C 48.315557 3.9716797 47.291328 4.3230469 46.345703 4.7324219 C 45.644703 5.0364219 44.977328 5.4132344 44.361328 5.8652344 C 44.041328 6.1002344 43.741547 6.3554219 43.435547 6.6074219 C 43.199547 6.8014219 42.968953 6.7150469 42.626953 6.7480469 C 41.171953 6.8880469 39.636609 7.6834062 39.224609 9.1914062 C 38.842609 10.589406 39.517 12.044594 40.875 12.558594 C 41.38 12.749594 41.971469 12.347328 42.105469 11.861328 C 42.259469 11.299328 41.91325 10.822859 41.40625 10.630859 C 41.25925 10.574859 41.140281 10.324547 41.113281 10.060547 C 41.087281 9.8175469 41.18725 9.5386406 41.40625 9.3066406 C 42.18425 8.4826406 43.359766 8.9724688 44.259766 8.4804688 C 44.742766 8.2154687 45.125125 7.7583594 45.578125 7.4433594 C 46.042125 7.1213594 46.535875 6.8396094 47.046875 6.5996094 C 47.555875 6.3606094 48.096578 6.1847813 48.642578 6.0507812 C 48.699578 6.0367812 48.760312 6.0237656 48.820312 6.0097656 C 48.332313 6.5807656 47.774812 7.0898594 47.132812 7.5058594 C 46.056812 8.2038594 47.058578 9.9354219 48.142578 9.2324219 C 49.542578 8.3244219 50.698766 7.1113906 51.509766 5.6503906 C 51.750766 5.2153906 51.652391 4.5092031 51.150391 4.2832031 C 50.558641 4.0165781 49.948166 3.9201172 49.335938 3.9394531 z M 28.080078 12.503906 C 27.901453 12.500031 27.722672 12.543078 27.576172 12.642578 C 26.570172 13.324578 25.800969 14.443141 25.042969 15.369141 C 23.577969 17.159141 22.162906 18.990219 20.753906 20.824219 C 17.724906 24.766219 14.750969 28.750094 11.792969 32.746094 C 11.109969 33.669094 10.427047 34.593531 9.7480469 35.519531 C 9.2950469 36.136531 9.9053281 37.047391 10.611328 37.025391 C 12.265328 36.972391 13.918266 36.908797 15.572266 36.841797 C 15.332266 41.892797 15.34675 46.940281 15.59375 51.988281 C 13.24075 52.542281 10.901078 53.152078 8.5800781 53.830078 C 7.8910781 54.031078 7.7604219 54.691406 7.9824219 55.191406 C 8.0244219 55.355406 8.1008906 55.514344 8.2128906 55.652344 C 8.7438906 56.303344 9.6663281 56.012344 10.361328 55.902344 C 10.742328 55.842344 11.122906 55.780703 11.503906 55.720703 C 14.727906 55.512703 17.952734 55.318578 21.177734 55.142578 C 24.262734 55.108578 27.353547 54.909594 30.435547 54.683594 C 37.338547 54.371594 44.244344 54.127938 51.152344 53.960938 C 52.436344 53.929938 52.442344 51.929937 51.152344 51.960938 C 49.635344 51.997937 48.118563 52.05075 46.601562 52.09375 C 47.073563 46.34675 47.554125 40.536531 47.453125 34.769531 C 49.705125 34.614531 52.352297 34.118656 51.404297 31.972656 C 51.377297 31.872656 51.338531 31.770969 51.269531 31.667969 C 49.970531 29.728969 48.525609 27.943391 46.974609 26.275391 C 46.961609 26.111391 46.944594 25.947203 46.933594 25.783203 C 46.890594 25.153203 46.867703 24.521625 46.845703 23.890625 C 46.790703 22.291625 46.760375 20.689844 46.734375 19.089844 C 46.712375 17.754844 46.697781 16.418984 46.675781 15.083984 C 46.671781 14.821984 46.676297 14.556922 46.654297 14.294922 C 46.582297 13.435922 45.907547 13.260656 45.185547 13.222656 C 43.179547 13.115656 41.104422 13.147141 39.107422 13.369141 C 38.418422 13.446141 38.026531 13.942766 38.144531 14.634766 C 38.385531 16.049766 38.502594 17.494547 38.558594 18.935547 C 35.388594 16.643547 32.021937 14.587578 28.585938 12.642578 C 28.437938 12.558578 28.258703 12.507781 28.080078 12.503906 z M 28.220703 14.738281 C 34.379703 18.256281 40.339641 22.150859 45.181641 27.255859 C 45.277641 27.445859 45.404359 27.595734 45.568359 27.677734 C 46.943359 29.164734 48.226625 30.750891 49.390625 32.462891 C 49.364625 32.470891 49.345453 32.474281 49.314453 32.488281 C 49.148453 32.506281 48.982406 32.521109 48.816406 32.537109 C 48.406406 32.578109 47.997891 32.618203 47.587891 32.658203 C 46.767891 32.737203 45.948906 32.814625 45.128906 32.890625 C 43.488906 33.041625 41.848031 33.185266 40.207031 33.322266 C 36.925031 33.596266 33.640516 33.842547 30.353516 34.060547 C 24.454516 34.451547 18.550578 34.733359 12.642578 34.943359 C 16.937578 29.090359 21.258641 23.241984 25.806641 17.583984 C 26.396641 16.849984 26.991328 16.11625 27.611328 15.40625 C 27.809328 15.18025 28.011703 14.955281 28.220703 14.738281 z M 42.955078 15.193359 C 43.529078 15.189359 44.102781 15.190078 44.675781 15.205078 L 44.681641 15.537109 C 44.685641 15.776109 44.688406 16.016859 44.691406 16.255859 L 44.146484 16.269531 C 43.649484 16.283531 43.151297 16.2985 42.654297 16.3125 C 41.900297 16.3335 41.127047 16.319109 40.373047 16.412109 C 40.335047 16.036109 40.292187 15.661109 40.242188 15.287109 C 41.146188 15.230109 42.052078 15.200359 42.955078 15.193359 z M 44.720703 18.246094 C 44.721703 18.297094 44.721656 18.349391 44.722656 18.400391 C 44.751656 20.312391 44.784375 22.225719 44.859375 24.136719 C 43.500375 22.842719 42.07475 21.62475 40.59375 20.46875 C 40.58575 19.77775 40.562391 19.088437 40.525391 18.398438 L 40.527344 18.398438 C 40.564344 18.394437 40.601672 18.389719 40.638672 18.386719 C 40.850672 18.367719 41.063391 18.358563 41.275391 18.351562 C 41.700391 18.337563 42.125781 18.328406 42.550781 18.316406 C 42.979781 18.304406 43.408891 18.291297 43.837891 18.279297 C 44.124891 18.271297 44.424703 18.250094 44.720703 18.246094 z M 30.283203 24.064453 C 29.218953 24.115953 28.172937 24.447437 27.273438 25.085938 C 26.471438 25.654937 25.755422 26.397641 25.357422 27.306641 C 24.925422 28.292641 25.039969 29.396344 25.667969 30.277344 C 27.023969 32.179344 29.636469 32.266328 31.730469 31.861328 C 33.583469 31.503328 35.837047 30.216438 35.623047 28.023438 C 35.489047 26.648438 34.507344 25.482703 33.402344 24.720703 C 32.430844 24.241203 31.347453 24.012953 30.283203 24.064453 z M 45.455078 34.867188 C 45.547078 40.426187 45.101484 46.022453 44.646484 51.564453 C 44.510484 51.580453 44.353719 51.599375 44.261719 51.609375 C 43.961719 51.641375 43.659375 51.662406 43.359375 51.691406 C 43.358375 51.610406 43.356469 51.530219 43.355469 51.449219 C 43.354469 50.762219 43.368812 50.075672 43.382812 49.388672 C 43.430813 47.134672 43.507891 44.879953 43.587891 42.626953 C 43.627891 41.494953 43.80225 40.38475 42.65625 39.71875 C 41.70725 39.16675 40.412234 39.284188 39.365234 39.367188 C 38.299234 39.451188 36.874469 39.474078 36.105469 40.330078 C 35.315469 41.210078 35.468906 42.766141 35.378906 43.869141 C 35.148906 46.702141 34.918453 49.536141 34.689453 52.369141 C 34.632453 52.373141 34.576531 52.378813 34.519531 52.382812 C 33.062531 52.483812 31.601672 52.593219 30.138672 52.699219 C 29.158672 52.744219 28.180172 52.798703 27.201172 52.845703 C 27.222172 52.702703 27.257859 52.562922 27.255859 52.419922 C 27.250859 51.909922 27.111891 51.381219 26.837891 50.949219 C 26.699891 50.732219 26.490281 50.558281 26.238281 50.488281 C 25.999281 50.422281 25.68175 50.452844 25.46875 50.589844 C 25.25475 50.727844 25.066813 50.9325 25.007812 51.1875 C 24.948812 51.4445 24.964375 51.729984 25.109375 51.958984 C 25.134375 51.998984 25.153781 52.041984 25.175781 52.083984 C 25.201781 52.159984 25.221281 52.237406 25.238281 52.316406 C 25.243281 52.396406 25.243281 52.475641 25.238281 52.556641 C 25.221281 52.636641 25.200828 52.717922 25.173828 52.794922 C 25.157828 52.825922 25.144953 52.856719 25.126953 52.886719 C 25.114953 52.905719 25.113516 52.931172 25.103516 52.951172 C 24.718516 52.970172 24.334219 52.989766 23.949219 53.009766 C 23.903219 52.923766 23.847344 52.842484 23.777344 52.771484 C 23.254344 52.128484 22.733937 51.48575 22.210938 50.84375 C 22.058937 50.65675 21.733906 50.550781 21.503906 50.550781 C 21.258906 50.550781 20.965875 50.65975 20.796875 50.84375 C 20.621875 51.03475 20.491906 51.284781 20.503906 51.550781 C 20.515906 51.639781 20.527062 51.727406 20.539062 51.816406 C 20.587062 51.985406 20.672875 52.133813 20.796875 52.257812 C 21.033875 52.548812 21.268859 52.839859 21.505859 53.130859 C 21.406859 53.135859 21.309938 53.140484 21.210938 53.146484 C 20.020937 53.161484 18.831531 53.141656 17.644531 53.097656 C 17.340531 47.652656 17.312219 42.208719 17.574219 36.761719 C 22.988219 36.519719 28.398734 36.211312 33.802734 35.820312 C 37.580734 35.547312 41.354953 35.236672 45.126953 34.888672 C 45.220953 34.879672 45.335078 34.873187 45.455078 34.867188 z M 31.306641 39.244141 C 30.146641 39.291141 28.982219 39.418859 27.824219 39.505859 C 25.503219 39.681859 23.184281 39.860016 20.863281 40.041016 C 20.311281 40.084016 19.881281 40.465016 19.863281 41.041016 C 19.835281 41.958016 20.069406 42.920078 20.191406 43.830078 C 20.337406 44.920078 20.365109 46.139219 20.662109 47.199219 C 20.977109 48.321219 21.995344 48.566094 23.027344 48.496094 C 24.113344 48.423094 25.199203 48.341187 26.283203 48.242188 C 27.382203 48.141188 28.479312 48.017375 29.570312 47.859375 C 30.522313 47.722375 31.836156 47.688719 32.660156 47.136719 C 33.565156 46.530719 33.766641 45.193359 33.806641 44.193359 C 33.850641 43.104359 33.630969 42.009266 33.417969 40.947266 C 33.177969 39.830266 32.460641 39.197141 31.306641 39.244141 z M 31.306641 41.244141 C 31.364641 41.256141 31.4055 41.261719 31.4375 41.261719 C 31.4555 41.333719 31.476234 41.406469 31.490234 41.480469 C 31.656234 42.306469 31.8195 43.135422 31.8125 43.982422 C 31.8095 44.354422 31.772781 44.711312 31.675781 45.070312 C 31.558781 45.504312 31.639719 45.461828 31.261719 45.548828 C 30.276719 45.772828 29.270719 45.921063 28.261719 46.039062 C 28.259719 45.968063 28.269906 45.899172 28.253906 45.826172 C 28.086906 45.057172 27.952844 44.283859 27.839844 43.505859 C 27.834844 43.471859 27.830172 43.437344 27.826172 43.402344 C 27.812172 43.295344 27.799109 43.187078 27.787109 43.080078 C 27.766109 42.896078 27.746516 42.712344 27.728516 42.527344 C 27.696516 42.192344 27.672391 41.857484 27.650391 41.521484 C 28.249391 41.475484 28.848219 41.429766 29.449219 41.384766 C 29.913219 41.349766 30.37875 41.313297 30.84375 41.279297 C 30.99875 41.267297 31.151641 41.256141 31.306641 41.244141 z M 41.013672 41.322266 C 41.181672 41.329266 41.347766 41.337672 41.509766 41.388672 C 41.581766 41.411672 41.67275 41.394422 41.71875 41.482422 C 41.70675 41.460422 41.657969 41.468187 41.667969 41.492188 C 41.733969 41.656187 41.621422 41.979156 41.607422 42.160156 C 41.586422 42.436156 41.584219 42.715188 41.574219 42.992188 C 41.555219 43.543188 41.535578 44.093531 41.517578 44.644531 C 41.506578 44.986531 41.501234 45.329875 41.490234 45.671875 C 41.097234 45.693875 40.703547 45.716281 40.310547 45.738281 C 40.045547 45.753281 39.795516 45.83925 39.603516 46.03125 C 39.430516 46.20425 39.299547 46.489281 39.310547 46.738281 C 39.322547 46.997281 39.407516 47.265313 39.603516 47.445312 C 39.792516 47.619312 40.045547 47.753281 40.310547 47.738281 C 40.685547 47.717281 41.060547 47.694828 41.435547 47.673828 C 41.413547 48.472828 41.384094 49.271312 41.371094 50.070312 C 41.363094 50.547312 41.275453 51.238094 41.314453 51.871094 C 39.778453 51.997094 38.240125 52.106797 36.703125 52.216797 C 36.876125 50.083797 37.049656 47.951359 37.222656 45.818359 C 37.314656 44.680359 37.408 43.540344 37.5 42.402344 C 37.531 42.023344 37.441219 41.687031 37.824219 41.582031 C 38.355219 41.436031 38.939328 41.394469 39.486328 41.355469 C 39.993328 41.319469 40.505672 41.301266 41.013672 41.322266 z M 25.667969 41.671875 C 25.774969 43.205875 25.980781 44.734281 26.300781 46.238281 C 26.220781 46.246281 26.140547 46.254719 26.060547 46.261719 C 25.200547 46.337719 24.337563 46.401891 23.476562 46.462891 C 23.171563 46.484891 22.863594 46.493719 22.558594 46.511719 C 22.553594 46.483719 22.548016 46.455063 22.541016 46.414062 C 22.504016 46.201062 22.482125 45.985484 22.453125 45.771484 C 22.335125 44.895484 22.217609 44.020531 22.099609 43.144531 C 22.047609 42.754531 21.975828 42.357937 21.923828 41.960938 C 23.171828 41.863937 24.419969 41.767875 25.667969 41.671875 z"/></svg>