<svg xmlns="http://www.w3.org/2000/svg"  viewBox="0 0 24 24" width="64px" height="64px"><path d="M 12 2 C 11.91225 2 11.824094 2.0223594 11.746094 2.0683594 L 2.2460938 7.65625 C 2.0080938 7.79625 1.9293594 8.1037969 2.0683594 8.3417969 C 2.2073594 8.5797969 2.5159063 8.6595313 2.7539062 8.5195312 L 3 8.3730469 L 3 20.5 C 3 20.776 3.224 21 3.5 21 L 8 21 L 8 11.5 C 8 11.224 8.224 11 8.5 11 L 15.5 11 C 15.776 11 16 11.224 16 11.5 L 16 21 L 20.5 21 C 20.776 21 21 20.776 21 20.5 L 21 8.3730469 L 21.246094 8.5195312 C 21.326094 8.5665313 21.414 8.5878906 21.5 8.5878906 C 21.671 8.5878906 21.837641 8.5007969 21.931641 8.3417969 C 22.070641 8.1047969 21.992906 7.79625 21.753906 7.65625 L 12.253906 2.0683594 C 12.175906 2.0223594 12.08775 2 12 2 z M 9 12 L 9 21 L 15 21 L 15 12 L 9 12 z"/></svg>