<svg xmlns="http://www.w3.org/2000/svg"  viewBox="0 0 24 24" width="64px" height="64px"><path d="M 12 2 C 11.868625 2 11.737141 2.0345156 11.619141 2.1035156 L 2.1191406 7.6914062 C 1.7621406 7.9014062 1.6435156 8.36175 1.8535156 8.71875 C 2.0635156 9.07575 2.5238594 9.195375 2.8808594 8.984375 L 3 8.9140625 L 3 20.25 C 3 20.664 3.336 21 3.75 21 L 8 21 L 8 11.75 C 8 11.336 8.336 11 8.75 11 L 15.25 11 C 15.664 11 16 11.336 16 11.75 L 16 21 L 20.25 21 C 20.664 21 21 20.664 21 20.25 L 21 8.9140625 L 21.119141 8.984375 C 21.239141 9.054375 21.37 9.0878906 21.5 9.0878906 C 21.757 9.0878906 22.006484 8.95675 22.146484 8.71875 C 22.355484 8.36275 22.237859 7.9014062 21.880859 7.6914062 L 12.380859 2.1035156 C 12.263359 2.0345156 12.131375 2 12 2 z M 9.5 12.5 L 9.5 21 L 14.5 21 L 14.5 12.5 L 9.5 12.5 z"/></svg>