<svg xmlns="http://www.w3.org/2000/svg"  viewBox="0 0 100 100" width="64px" height="64px" fill-rule="evenodd" clip-rule="evenodd" baseProfile="basic"><path fill="#fed34f" fill-rule="evenodd" d="M49.996,28.003	L49.996,28.003 M79.995,73.003l-28,1l-21.413-1H19.996c6.627,0,12-5.373,12-12v-19l18-14l18,14v19	C67.996,67.629,73.369,73.003,79.995,73.003z" clip-rule="evenodd"/><rect width="12.001" height="20.997" x="43.997" y="53.003" fill="#b8b8b8" fill-rule="evenodd" clip-rule="evenodd"/><path fill="#048" fill-rule="evenodd" d="M30.582,73.003h12.427	v-20c0-0.547,0.44-1,1-1h12c0.547,0,1,0.453,1,1v20h15.787c-4.08-2.453-6.8-6.907-6.8-12V42.976l-16-12.44l-16,12.44v18.027	c0,7.72-6.267,14-14,14h-20v-4h20c5.52,0,10-4.48,10-10V43.549l-3.76,2.934l-1.24-1.574l23.773-18.493c0.72-0.56,1.733-0.56,2.453,0	l23.76,18.493l-1.227,1.574l-3.76-2.92v17.44c0,5.52,4.48,10,10,10h20v4H27.742C28.756,74.443,29.716,73.763,30.582,73.003z M55.009,73.003v-19h-10v19H55.009z" clip-rule="evenodd"/></svg>