<svg xmlns="http://www.w3.org/2000/svg"  viewBox="0 0 32 32" width="64px" height="64px"><path d="M16 6A1 1 0 1016 8 1 1 0 1016 6zM19 9A1 1 0 1019 11 1 1 0 1019 9zM16 9A1 1 0 1016 11 1 1 0 1016 9zM13 9A1 1 0 1013 11 1 1 0 1013 9zM22 12A1 1 0 1022 14 1 1 0 1022 12zM19 12A1 1 0 1019 14 1 1 0 1019 12zM16 12A1 1 0 1016 14 1 1 0 1016 12zM13 12A1 1 0 1013 14 1 1 0 1013 12zM10 12A1 1 0 1010 14 1 1 0 1010 12zM25 15A1 1 0 1025 17 1 1 0 1025 15zM22 15A1 1 0 1022 17 1 1 0 1022 15zM19 15A1 1 0 1019 17 1 1 0 1019 15zM16 15A1 1 0 1016 17 1 1 0 1016 15zM13 15A1 1 0 1013 17 1 1 0 1013 15zM10 15A1 1 0 1010 17 1 1 0 1010 15zM7 15A1 1 0 107 17 1 1 0 107 15zM25 18A1 1 0 1025 20 1 1 0 1025 18zM22 18A1 1 0 1022 20 1 1 0 1022 18zM10 18A1 1 0 1010 20 1 1 0 1010 18zM7 18A1 1 0 107 20 1 1 0 107 18zM4 18A1 1 0 104 20 1 1 0 104 18zM25 21A1 1 0 1025 23 1 1 0 1025 21zM22 21A1 1 0 1022 23 1 1 0 1022 21zM10 21A1 1 0 1010 23 1 1 0 1010 21zM7 21A1 1 0 107 23 1 1 0 107 21zM4 21A1 1 0 104 23 1 1 0 104 21zM25 24A1 1 0 1025 26 1 1 0 1025 24zM28 18A1 1 0 1028 20 1 1 0 1028 18zM16 0A1 1 0 1016 2 1 1 0 1016 0zM19 3A1 1 0 1019 5 1 1 0 1019 3zM13 3A1 1 0 1013 5 1 1 0 1013 3zM22 6A1 1 0 1022 8 1 1 0 1022 6zM10 6A1 1 0 1010 8 1 1 0 1010 6zM25 9A1 1 0 1025 11 1 1 0 1025 9zM7 9A1 1 0 107 11 1 1 0 107 9zM4 12A1 1 0 104 14 1 1 0 104 12zM28 12A1 1 0 1028 14 1 1 0 1028 12zM31 15A1 1 0 1031 17 1 1 0 1031 15zM1 15A1 1 0 101 17 1 1 0 101 15zM28 21A1 1 0 1028 23 1 1 0 1028 21zM28 24A1 1 0 1028 26 1 1 0 1028 24zM22 24A1 1 0 1022 26 1 1 0 1022 24zM10 24A1 1 0 1010 26 1 1 0 1010 24zM7 24A1 1 0 107 26 1 1 0 107 24zM4 24A1 1 0 104 26 1 1 0 104 24zM25 27A1 1 0 1025 29 1 1 0 1025 27zM28 27A1 1 0 1028 29 1 1 0 1028 27zM22 27A1 1 0 1022 29 1 1 0 1022 27zM10 27A1 1 0 1010 29 1 1 0 1010 27zM7 27A1 1 0 107 29 1 1 0 107 27zM4 27A1 1 0 104 29 1 1 0 104 27z"/></svg>