<svg xmlns="http://www.w3.org/2000/svg"  viewBox="0 0 24 24" width="64px" height="64px" baseProfile="basic"><rect width="8.33" height="7.774" x="5" y="13.226" fill="#bbdefb"/><path fill="#4759d1" d="M21,10.65V20c0,0.55-0.45,1-1,1h-8c-0.55,0-1-0.45-1-1v-4c0-0.55-0.45-1-1-1H8c-0.55,0-1,0.45-1,1v4	c0,0.55-0.45,1-1,1H4c-0.55,0-1-0.45-1-1v-9.35c0-0.57,0.24-1.12,0.67-1.5l7-6.22c0.76-0.67,1.9-0.67,2.66,0l7,6.22	C20.76,9.53,21,10.08,21,10.65z"/><path fill="#bbdefb" d="M18,14v2c0,0.55-0.45,1-1,1h-2c-0.55,0-1-0.45-1-1v-2c0-0.55,0.45-1,1-1h2C17.55,13,18,13.45,18,14z"/></svg>