<svg xmlns="http://www.w3.org/2000/svg"  viewBox="0 0 48 48" width="64px" height="64px"><linearGradient id="SVGID_1_" x1="37.747" x2="10.253" y1="16.536" y2="44.031" gradientUnits="userSpaceOnUse"><stop offset=".014" stop-color="#fe6d60"/><stop offset=".046" stop-color="#fe766a"/><stop offset=".208" stop-color="#fea097"/><stop offset=".37" stop-color="#ffc2bd"/><stop offset=".532" stop-color="#ffddda"/><stop offset=".692" stop-color="#fff0ee"/><stop offset=".849" stop-color="#fffbfb"/><stop offset="1" stop-color="#fff"/></linearGradient><path fill="url(#SVGID_1_)" d="M40.5,40.863V21.775c0-1.838-0.843-3.575-2.287-4.713L24.619,6.351c-0.363-0.286-0.875-0.286-1.238,0	L9.787,17.062C8.343,18.199,7.5,19.936,7.5,21.775v19.089c0,0.552,0.448,1,1,1h31C40.052,41.863,40.5,41.416,40.5,40.863z"/><path fill="none" stroke="#e02f24" stroke-linecap="round" stroke-linejoin="round" stroke-miterlimit="10" stroke-width="3" d="M13.41,13.843l-3.624,2.855C8.343,17.836,7.5,19.573,7.5,21.411V39.5c0,1.105,0.895,2,2,2h19.958"/><path fill="none" stroke="#e02f24" stroke-linecap="round" stroke-linejoin="round" stroke-miterlimit="10" stroke-width="3" d="M35,41.5h3.5c1.105,0,2-0.895,2-2V21.411c0-1.838-0.843-3.575-2.287-4.713L24.619,5.988	c-0.363-0.286-0.875-0.286-1.238,0L18.809,9.59"/><path fill="none" stroke="#e02f24" stroke-linecap="round" stroke-linejoin="round" stroke-miterlimit="10" stroke-width="3" d="M18.542,35.681V27.5c0-0.552,0.448-1,1-1h8.917c0.552,0,1,0.448,1,1v14"/></svg>