<svg xmlns="http://www.w3.org/2000/svg"  viewBox="0 0 24 24" width="64px" height="64px"><path d="M 11.019531 1 A 1.0001 1.0001 0 0 0 10.417969 1.1855469 C 10.417969 1.1855469 6.1162467 4.2605801 4.2578125 5.5878906 C 4.2475427 5.5952122 4.2406299 5.6058418 4.2304688 5.6132812 L 1.40625 7.6953125 A 1.0001 1.0001 0 1 0 2.59375 9.3046875 L 3 9.0058594 L 3 11 L 3 16 L 3 16.929688 C 3 17.598688 3.333625 18.22275 3.890625 18.59375 C 5.166625 19.44475 7.4751406 20.983109 8.4941406 21.662109 C 8.8241406 21.881109 9.212375 22 9.609375 22 L 20.009766 22 C 20.537766 22 21.044969 21.790969 21.417969 21.417969 C 21.790969 21.044969 21.999047 20.537766 21.998047 20.009766 C 21.997047 17.156766 21.997094 12.012187 21.996094 9.8671875 C 21.996094 9.2481875 21.709703 8.6631563 21.220703 8.2851562 C 20.053703 7.3811563 17.980469 5.7773438 17.980469 5.7773438 L 17.980469 5.8046875 C 17.900394 5.7332454 17.832443 5.6509635 17.744141 5.5878906 C 15.885662 4.2612631 11.582031 1.1855469 11.582031 1.1855469 A 1.0001 1.0001 0 0 0 11.019531 1 z M 11 3.2304688 C 11.681684 3.7174894 14.898139 6.0147931 16.582031 7.2167969 C 16.843971 7.4046182 17 7.7058933 17 8.0292969 L 17 16 C 17 16.264591 16.894727 16.519336 16.707031 16.707031 C 16.519336 16.894727 16.264591 17 16 17 L 13 17 L 13 10.980469 C 13 10.720469 12.896891 10.471109 12.712891 10.287109 C 12.528891 10.103109 12.279531 10 12.019531 10 L 9.9804688 10 C 9.7204688 10 9.4711094 10.103109 9.2871094 10.287109 C 9.1031094 10.471109 9 10.720469 9 10.980469 L 9 17 L 6 17 C 5.7354088 17 5.480664 16.894727 5.2929688 16.707031 C 5.1052735 16.519336 5 16.264591 5 16 L 5 8.0292969 C 5 7.7250595 5.1402096 7.4448885 5.375 7.2558594 L 5.5234375 7.1464844 A 1.0001 1.0001 0 0 0 5.5878906 7.0957031 A 1.0001 1.0001 0 0 0 5.6015625 7.0839844 C 7.3218992 5.8553726 10.340373 3.7017367 11 3.2304688 z"/></svg>